<svg width="32" height="32" viewBox="0 0 48 48" fill="none" xmlns="http://www.w3.org/2000/svg">
  <defs>
    <linearGradient id="g" x1="0" y1="0" x2="1" y2="1">
      <stop offset="0%" stop-color="#f59e0b"/>
      <stop offset="100%" stop-color="#22c55e"/>
    </linearGradient>
  </defs>
  <circle cx="24" cy="24" r="22" stroke="url(#g)" stroke-width="2.5" fill="none" />
  <path d="M24 9c4 3 6 6.5 6 10.5 0 3.2-1.5 6.1-3.9 8.1-1.1.9-2.1 2.1-2.1 3.6v.3c0 1.9 1.6 3.5 3.5 3.5 5.5 0 10-4.5 10-10 0-7.7-6.3-14-14-14-5.1 0-9.6 2.7-12.1 6.8C12.3 15 14.9 14 18 14c3.2 0 6 1.3 6 4.5 0 2.8-2.3 4.5-5 4.5-2.2 0-4.1-.7-5.6-1.9C14 27 18.4 31 24 31c6.1 0 11-4.9 11-11 0-5.2-3.6-9.5-8.4-10.7C25.6 9.1 24.8 9 24 9z" fill="url(#g)"/>
</svg>


